<mxfile host="app.diagrams.net" modified="2023-09-20T09:02:31.414Z" agent="Mozilla/5.0 (Windows NT 10.0; Win64; x64) AppleWebKit/537.36 (KHTML, like Gecko) Chrome/116.0.0.0 Safari/537.36 OPR/102.0.0.0" etag="DTf0XWLCM57uMZWZU0cD" version="21.7.5" type="github">
  <diagram id="C5RBs43oDa-KdzZeNtuy" name="Page-1">
    <mxGraphModel dx="3336" dy="2086" grid="1" gridSize="10" guides="1" tooltips="1" connect="1" arrows="1" fold="1" page="1" pageScale="1" pageWidth="827" pageHeight="1169" math="0" shadow="0">
      <root>
        <mxCell id="WIyWlLk6GJQsqaUBKTNV-0" />
        <mxCell id="WIyWlLk6GJQsqaUBKTNV-1" parent="WIyWlLk6GJQsqaUBKTNV-0" />
        <mxCell id="OIwTNz8X2AKilvekN-6Q-1" value="&lt;font style=&quot;font-size: 32px;&quot;&gt;Gra w chowanego&lt;/font&gt;" style="rounded=1;whiteSpace=wrap;html=1;absoluteArcSize=1;arcSize=14;strokeWidth=2;" vertex="1" parent="WIyWlLk6GJQsqaUBKTNV-1">
          <mxGeometry x="-380" y="-120" width="290" height="170" as="geometry" />
        </mxCell>
        <mxCell id="OIwTNz8X2AKilvekN-6Q-22" style="edgeStyle=orthogonalEdgeStyle;rounded=0;orthogonalLoop=1;jettySize=auto;html=1;entryX=1;entryY=0.5;entryDx=0;entryDy=0;" edge="1" parent="WIyWlLk6GJQsqaUBKTNV-1" source="OIwTNz8X2AKilvekN-6Q-2" target="OIwTNz8X2AKilvekN-6Q-27">
          <mxGeometry relative="1" as="geometry">
            <mxPoint x="110" y="165" as="targetPoint" />
          </mxGeometry>
        </mxCell>
        <mxCell id="OIwTNz8X2AKilvekN-6Q-30" style="edgeStyle=orthogonalEdgeStyle;rounded=0;orthogonalLoop=1;jettySize=auto;html=1;entryX=0;entryY=0.5;entryDx=0;entryDy=0;" edge="1" parent="WIyWlLk6GJQsqaUBKTNV-1" source="OIwTNz8X2AKilvekN-6Q-2" target="OIwTNz8X2AKilvekN-6Q-29">
          <mxGeometry relative="1" as="geometry">
            <mxPoint x="560" y="165" as="targetPoint" />
          </mxGeometry>
        </mxCell>
        <mxCell id="OIwTNz8X2AKilvekN-6Q-2" value="jesteś szukającym?" style="rounded=1;whiteSpace=wrap;html=1;absoluteArcSize=1;arcSize=14;strokeWidth=2;" vertex="1" parent="WIyWlLk6GJQsqaUBKTNV-1">
          <mxGeometry x="300" y="115" width="100" height="100" as="geometry" />
        </mxCell>
        <mxCell id="OIwTNz8X2AKilvekN-6Q-33" style="edgeStyle=orthogonalEdgeStyle;rounded=0;orthogonalLoop=1;jettySize=auto;html=1;entryX=0.5;entryY=0;entryDx=0;entryDy=0;" edge="1" parent="WIyWlLk6GJQsqaUBKTNV-1" source="OIwTNz8X2AKilvekN-6Q-10" target="OIwTNz8X2AKilvekN-6Q-15">
          <mxGeometry relative="1" as="geometry" />
        </mxCell>
        <mxCell id="OIwTNz8X2AKilvekN-6Q-10" value="Idź szukać." style="rounded=1;whiteSpace=wrap;html=1;absoluteArcSize=1;arcSize=14;strokeWidth=2;" vertex="1" parent="WIyWlLk6GJQsqaUBKTNV-1">
          <mxGeometry x="540" y="260" width="100" height="100" as="geometry" />
        </mxCell>
        <mxCell id="OIwTNz8X2AKilvekN-6Q-58" style="edgeStyle=orthogonalEdgeStyle;rounded=0;orthogonalLoop=1;jettySize=auto;html=1;" edge="1" parent="WIyWlLk6GJQsqaUBKTNV-1" source="OIwTNz8X2AKilvekN-6Q-12" target="OIwTNz8X2AKilvekN-6Q-57">
          <mxGeometry relative="1" as="geometry" />
        </mxCell>
        <mxCell id="OIwTNz8X2AKilvekN-6Q-12" value="Idź się chować" style="rounded=1;whiteSpace=wrap;html=1;absoluteArcSize=1;arcSize=14;strokeWidth=2;" vertex="1" parent="WIyWlLk6GJQsqaUBKTNV-1">
          <mxGeometry x="-780" y="260" width="120" height="100" as="geometry" />
        </mxCell>
        <mxCell id="OIwTNz8X2AKilvekN-6Q-37" style="edgeStyle=orthogonalEdgeStyle;rounded=0;orthogonalLoop=1;jettySize=auto;html=1;entryX=0.5;entryY=0;entryDx=0;entryDy=0;" edge="1" parent="WIyWlLk6GJQsqaUBKTNV-1" source="OIwTNz8X2AKilvekN-6Q-15" target="OIwTNz8X2AKilvekN-6Q-36">
          <mxGeometry relative="1" as="geometry" />
        </mxCell>
        <mxCell id="OIwTNz8X2AKilvekN-6Q-39" style="edgeStyle=orthogonalEdgeStyle;rounded=0;orthogonalLoop=1;jettySize=auto;html=1;entryX=0.5;entryY=0;entryDx=0;entryDy=0;" edge="1" parent="WIyWlLk6GJQsqaUBKTNV-1" source="OIwTNz8X2AKilvekN-6Q-15" target="OIwTNz8X2AKilvekN-6Q-38">
          <mxGeometry relative="1" as="geometry" />
        </mxCell>
        <mxCell id="OIwTNz8X2AKilvekN-6Q-15" value="Znalazłeś kogoś?" style="rounded=1;whiteSpace=wrap;html=1;absoluteArcSize=1;arcSize=14;strokeWidth=2;" vertex="1" parent="WIyWlLk6GJQsqaUBKTNV-1">
          <mxGeometry x="540" y="420" width="100" height="100" as="geometry" />
        </mxCell>
        <mxCell id="OIwTNz8X2AKilvekN-6Q-28" style="edgeStyle=orthogonalEdgeStyle;rounded=0;orthogonalLoop=1;jettySize=auto;html=1;entryX=0.5;entryY=0;entryDx=0;entryDy=0;" edge="1" parent="WIyWlLk6GJQsqaUBKTNV-1" source="OIwTNz8X2AKilvekN-6Q-27" target="OIwTNz8X2AKilvekN-6Q-12">
          <mxGeometry relative="1" as="geometry" />
        </mxCell>
        <mxCell id="OIwTNz8X2AKilvekN-6Q-27" value="nie&lt;br&gt;" style="rounded=1;whiteSpace=wrap;html=1;absoluteArcSize=1;arcSize=14;strokeWidth=2;" vertex="1" parent="WIyWlLk6GJQsqaUBKTNV-1">
          <mxGeometry x="-740" y="150" width="40" height="30" as="geometry" />
        </mxCell>
        <mxCell id="OIwTNz8X2AKilvekN-6Q-31" style="edgeStyle=orthogonalEdgeStyle;rounded=0;orthogonalLoop=1;jettySize=auto;html=1;entryX=0.5;entryY=0;entryDx=0;entryDy=0;" edge="1" parent="WIyWlLk6GJQsqaUBKTNV-1" source="OIwTNz8X2AKilvekN-6Q-29" target="OIwTNz8X2AKilvekN-6Q-10">
          <mxGeometry relative="1" as="geometry" />
        </mxCell>
        <mxCell id="OIwTNz8X2AKilvekN-6Q-29" value="tak" style="rounded=1;whiteSpace=wrap;html=1;absoluteArcSize=1;arcSize=14;strokeWidth=2;" vertex="1" parent="WIyWlLk6GJQsqaUBKTNV-1">
          <mxGeometry x="570" y="150" width="40" height="30" as="geometry" />
        </mxCell>
        <mxCell id="OIwTNz8X2AKilvekN-6Q-43" style="edgeStyle=orthogonalEdgeStyle;rounded=0;orthogonalLoop=1;jettySize=auto;html=1;entryX=0.5;entryY=0;entryDx=0;entryDy=0;" edge="1" parent="WIyWlLk6GJQsqaUBKTNV-1" source="OIwTNz8X2AKilvekN-6Q-36" target="OIwTNz8X2AKilvekN-6Q-42">
          <mxGeometry relative="1" as="geometry" />
        </mxCell>
        <mxCell id="OIwTNz8X2AKilvekN-6Q-36" value="tak" style="rounded=1;whiteSpace=wrap;html=1;absoluteArcSize=1;arcSize=14;strokeWidth=2;" vertex="1" parent="WIyWlLk6GJQsqaUBKTNV-1">
          <mxGeometry x="240" y="570" width="50" height="30" as="geometry" />
        </mxCell>
        <mxCell id="OIwTNz8X2AKilvekN-6Q-41" style="edgeStyle=orthogonalEdgeStyle;rounded=0;orthogonalLoop=1;jettySize=auto;html=1;entryX=0.5;entryY=0;entryDx=0;entryDy=0;" edge="1" parent="WIyWlLk6GJQsqaUBKTNV-1" source="OIwTNz8X2AKilvekN-6Q-38" target="OIwTNz8X2AKilvekN-6Q-40">
          <mxGeometry relative="1" as="geometry" />
        </mxCell>
        <mxCell id="OIwTNz8X2AKilvekN-6Q-38" value="nie&lt;br&gt;" style="rounded=1;whiteSpace=wrap;html=1;absoluteArcSize=1;arcSize=14;strokeWidth=2;" vertex="1" parent="WIyWlLk6GJQsqaUBKTNV-1">
          <mxGeometry x="720" y="570" width="40" height="30" as="geometry" />
        </mxCell>
        <mxCell id="OIwTNz8X2AKilvekN-6Q-54" style="edgeStyle=orthogonalEdgeStyle;rounded=0;orthogonalLoop=1;jettySize=auto;html=1;entryX=0.5;entryY=1;entryDx=0;entryDy=0;" edge="1" parent="WIyWlLk6GJQsqaUBKTNV-1" source="OIwTNz8X2AKilvekN-6Q-40" target="OIwTNz8X2AKilvekN-6Q-15">
          <mxGeometry relative="1" as="geometry" />
        </mxCell>
        <mxCell id="OIwTNz8X2AKilvekN-6Q-40" value="szukaj dalej" style="rounded=1;whiteSpace=wrap;html=1;absoluteArcSize=1;arcSize=14;strokeWidth=2;" vertex="1" parent="WIyWlLk6GJQsqaUBKTNV-1">
          <mxGeometry x="700" y="660" width="80" height="30" as="geometry" />
        </mxCell>
        <mxCell id="OIwTNz8X2AKilvekN-6Q-46" style="edgeStyle=orthogonalEdgeStyle;rounded=0;orthogonalLoop=1;jettySize=auto;html=1;entryX=0.5;entryY=0;entryDx=0;entryDy=0;" edge="1" parent="WIyWlLk6GJQsqaUBKTNV-1" source="OIwTNz8X2AKilvekN-6Q-42" target="OIwTNz8X2AKilvekN-6Q-45">
          <mxGeometry relative="1" as="geometry" />
        </mxCell>
        <mxCell id="OIwTNz8X2AKilvekN-6Q-47" style="edgeStyle=orthogonalEdgeStyle;rounded=0;orthogonalLoop=1;jettySize=auto;html=1;entryX=0.5;entryY=0;entryDx=0;entryDy=0;" edge="1" parent="WIyWlLk6GJQsqaUBKTNV-1" source="OIwTNz8X2AKilvekN-6Q-42" target="OIwTNz8X2AKilvekN-6Q-44">
          <mxGeometry relative="1" as="geometry" />
        </mxCell>
        <mxCell id="OIwTNz8X2AKilvekN-6Q-42" value="znalazłeś wszystkich?" style="rounded=1;whiteSpace=wrap;html=1;absoluteArcSize=1;arcSize=14;strokeWidth=2;" vertex="1" parent="WIyWlLk6GJQsqaUBKTNV-1">
          <mxGeometry x="210" y="650" width="110" height="30" as="geometry" />
        </mxCell>
        <mxCell id="OIwTNz8X2AKilvekN-6Q-53" style="edgeStyle=orthogonalEdgeStyle;rounded=0;orthogonalLoop=1;jettySize=auto;html=1;entryX=0.5;entryY=1;entryDx=0;entryDy=0;" edge="1" parent="WIyWlLk6GJQsqaUBKTNV-1" source="OIwTNz8X2AKilvekN-6Q-44" target="OIwTNz8X2AKilvekN-6Q-40">
          <mxGeometry relative="1" as="geometry">
            <Array as="points">
              <mxPoint x="195" y="1020" />
              <mxPoint x="740" y="1020" />
            </Array>
          </mxGeometry>
        </mxCell>
        <mxCell id="OIwTNz8X2AKilvekN-6Q-44" value="nie&lt;br&gt;" style="rounded=1;whiteSpace=wrap;html=1;absoluteArcSize=1;arcSize=14;strokeWidth=2;" vertex="1" parent="WIyWlLk6GJQsqaUBKTNV-1">
          <mxGeometry x="170" y="730" width="50" height="30" as="geometry" />
        </mxCell>
        <mxCell id="OIwTNz8X2AKilvekN-6Q-51" style="edgeStyle=orthogonalEdgeStyle;rounded=0;orthogonalLoop=1;jettySize=auto;html=1;entryX=0.5;entryY=0;entryDx=0;entryDy=0;" edge="1" parent="WIyWlLk6GJQsqaUBKTNV-1" source="OIwTNz8X2AKilvekN-6Q-45" target="OIwTNz8X2AKilvekN-6Q-49">
          <mxGeometry relative="1" as="geometry" />
        </mxCell>
        <mxCell id="OIwTNz8X2AKilvekN-6Q-45" value="tak" style="rounded=1;whiteSpace=wrap;html=1;absoluteArcSize=1;arcSize=14;strokeWidth=2;" vertex="1" parent="WIyWlLk6GJQsqaUBKTNV-1">
          <mxGeometry x="320" y="730" width="50" height="30" as="geometry" />
        </mxCell>
        <mxCell id="OIwTNz8X2AKilvekN-6Q-52" style="edgeStyle=orthogonalEdgeStyle;rounded=0;orthogonalLoop=1;jettySize=auto;html=1;entryX=0.5;entryY=0;entryDx=0;entryDy=0;" edge="1" parent="WIyWlLk6GJQsqaUBKTNV-1" source="OIwTNz8X2AKilvekN-6Q-49" target="OIwTNz8X2AKilvekN-6Q-55">
          <mxGeometry relative="1" as="geometry">
            <mxPoint x="345" y="900" as="targetPoint" />
          </mxGeometry>
        </mxCell>
        <mxCell id="OIwTNz8X2AKilvekN-6Q-49" value="gra zakończona" style="rounded=1;whiteSpace=wrap;html=1;absoluteArcSize=1;arcSize=14;strokeWidth=2;" vertex="1" parent="WIyWlLk6GJQsqaUBKTNV-1">
          <mxGeometry x="295" y="810" width="100" height="30" as="geometry" />
        </mxCell>
        <mxCell id="OIwTNz8X2AKilvekN-6Q-112" style="edgeStyle=orthogonalEdgeStyle;rounded=0;orthogonalLoop=1;jettySize=auto;html=1;entryX=1.01;entryY=0.657;entryDx=0;entryDy=0;entryPerimeter=0;" edge="1" parent="WIyWlLk6GJQsqaUBKTNV-1" source="OIwTNz8X2AKilvekN-6Q-55" target="OIwTNz8X2AKilvekN-6Q-109">
          <mxGeometry relative="1" as="geometry" />
        </mxCell>
        <mxCell id="OIwTNz8X2AKilvekN-6Q-55" value="powiedz kogo znalazłeś pierwszego" style="rounded=1;whiteSpace=wrap;html=1;absoluteArcSize=1;arcSize=14;strokeWidth=2;" vertex="1" parent="WIyWlLk6GJQsqaUBKTNV-1">
          <mxGeometry x="285" y="910" width="120" height="30" as="geometry" />
        </mxCell>
        <mxCell id="OIwTNz8X2AKilvekN-6Q-61" style="edgeStyle=orthogonalEdgeStyle;rounded=0;orthogonalLoop=1;jettySize=auto;html=1;" edge="1" parent="WIyWlLk6GJQsqaUBKTNV-1" source="OIwTNz8X2AKilvekN-6Q-57" target="OIwTNz8X2AKilvekN-6Q-60">
          <mxGeometry relative="1" as="geometry" />
        </mxCell>
        <mxCell id="OIwTNz8X2AKilvekN-6Q-62" style="edgeStyle=orthogonalEdgeStyle;rounded=0;orthogonalLoop=1;jettySize=auto;html=1;entryX=0.5;entryY=0;entryDx=0;entryDy=0;" edge="1" parent="WIyWlLk6GJQsqaUBKTNV-1" source="OIwTNz8X2AKilvekN-6Q-57" target="OIwTNz8X2AKilvekN-6Q-59">
          <mxGeometry relative="1" as="geometry" />
        </mxCell>
        <mxCell id="OIwTNz8X2AKilvekN-6Q-57" value="schowałeś sie już?" style="rounded=1;whiteSpace=wrap;html=1;absoluteArcSize=1;arcSize=14;strokeWidth=2;" vertex="1" parent="WIyWlLk6GJQsqaUBKTNV-1">
          <mxGeometry x="-780" y="410" width="120" height="40" as="geometry" />
        </mxCell>
        <mxCell id="OIwTNz8X2AKilvekN-6Q-67" style="edgeStyle=orthogonalEdgeStyle;rounded=0;orthogonalLoop=1;jettySize=auto;html=1;entryX=0.5;entryY=0;entryDx=0;entryDy=0;" edge="1" parent="WIyWlLk6GJQsqaUBKTNV-1" source="OIwTNz8X2AKilvekN-6Q-59" target="OIwTNz8X2AKilvekN-6Q-65">
          <mxGeometry relative="1" as="geometry" />
        </mxCell>
        <mxCell id="OIwTNz8X2AKilvekN-6Q-59" value="nie&lt;br&gt;" style="rounded=1;whiteSpace=wrap;html=1;absoluteArcSize=1;arcSize=14;strokeWidth=2;" vertex="1" parent="WIyWlLk6GJQsqaUBKTNV-1">
          <mxGeometry x="-1080" y="540" width="50" height="30" as="geometry" />
        </mxCell>
        <mxCell id="OIwTNz8X2AKilvekN-6Q-64" style="edgeStyle=orthogonalEdgeStyle;rounded=0;orthogonalLoop=1;jettySize=auto;html=1;entryX=0.5;entryY=0;entryDx=0;entryDy=0;" edge="1" parent="WIyWlLk6GJQsqaUBKTNV-1" source="OIwTNz8X2AKilvekN-6Q-60" target="OIwTNz8X2AKilvekN-6Q-63">
          <mxGeometry relative="1" as="geometry" />
        </mxCell>
        <mxCell id="OIwTNz8X2AKilvekN-6Q-60" value="tak" style="rounded=1;whiteSpace=wrap;html=1;absoluteArcSize=1;arcSize=14;strokeWidth=2;" vertex="1" parent="WIyWlLk6GJQsqaUBKTNV-1">
          <mxGeometry x="-50" y="520" width="50" height="30" as="geometry" />
        </mxCell>
        <mxCell id="OIwTNz8X2AKilvekN-6Q-72" style="edgeStyle=orthogonalEdgeStyle;rounded=0;orthogonalLoop=1;jettySize=auto;html=1;entryX=0.5;entryY=0;entryDx=0;entryDy=0;" edge="1" parent="WIyWlLk6GJQsqaUBKTNV-1" source="OIwTNz8X2AKilvekN-6Q-63" target="OIwTNz8X2AKilvekN-6Q-71">
          <mxGeometry relative="1" as="geometry" />
        </mxCell>
        <mxCell id="OIwTNz8X2AKilvekN-6Q-63" value="czekaj aż znajdzie cię szukający" style="rounded=1;whiteSpace=wrap;html=1;absoluteArcSize=1;arcSize=14;strokeWidth=2;" vertex="1" parent="WIyWlLk6GJQsqaUBKTNV-1">
          <mxGeometry x="-75" y="585" width="100" height="100" as="geometry" />
        </mxCell>
        <mxCell id="OIwTNz8X2AKilvekN-6Q-68" style="edgeStyle=orthogonalEdgeStyle;rounded=0;orthogonalLoop=1;jettySize=auto;html=1;entryX=0.5;entryY=1;entryDx=0;entryDy=0;" edge="1" parent="WIyWlLk6GJQsqaUBKTNV-1" source="OIwTNz8X2AKilvekN-6Q-65" target="OIwTNz8X2AKilvekN-6Q-57">
          <mxGeometry relative="1" as="geometry" />
        </mxCell>
        <mxCell id="OIwTNz8X2AKilvekN-6Q-65" value="szukaj miejsca dalej" style="rounded=1;whiteSpace=wrap;html=1;absoluteArcSize=1;arcSize=14;strokeWidth=2;" vertex="1" parent="WIyWlLk6GJQsqaUBKTNV-1">
          <mxGeometry x="-1115" y="680" width="120" height="40" as="geometry" />
        </mxCell>
        <mxCell id="OIwTNz8X2AKilvekN-6Q-86" style="edgeStyle=orthogonalEdgeStyle;rounded=0;orthogonalLoop=1;jettySize=auto;html=1;" edge="1" parent="WIyWlLk6GJQsqaUBKTNV-1" source="OIwTNz8X2AKilvekN-6Q-70" target="OIwTNz8X2AKilvekN-6Q-57">
          <mxGeometry relative="1" as="geometry">
            <Array as="points">
              <mxPoint x="-195" y="1390" />
              <mxPoint x="-720" y="1390" />
            </Array>
          </mxGeometry>
        </mxCell>
        <mxCell id="OIwTNz8X2AKilvekN-6Q-70" value="przemieść się" style="rounded=1;whiteSpace=wrap;html=1;absoluteArcSize=1;arcSize=14;strokeWidth=2;" vertex="1" parent="WIyWlLk6GJQsqaUBKTNV-1">
          <mxGeometry x="-245" y="1110" width="100" height="40" as="geometry" />
        </mxCell>
        <mxCell id="OIwTNz8X2AKilvekN-6Q-75" style="edgeStyle=orthogonalEdgeStyle;rounded=0;orthogonalLoop=1;jettySize=auto;html=1;entryX=0.5;entryY=0;entryDx=0;entryDy=0;" edge="1" parent="WIyWlLk6GJQsqaUBKTNV-1" source="OIwTNz8X2AKilvekN-6Q-71" target="OIwTNz8X2AKilvekN-6Q-74">
          <mxGeometry relative="1" as="geometry" />
        </mxCell>
        <mxCell id="OIwTNz8X2AKilvekN-6Q-76" style="edgeStyle=orthogonalEdgeStyle;rounded=0;orthogonalLoop=1;jettySize=auto;html=1;entryX=0.5;entryY=0;entryDx=0;entryDy=0;" edge="1" parent="WIyWlLk6GJQsqaUBKTNV-1" source="OIwTNz8X2AKilvekN-6Q-71" target="OIwTNz8X2AKilvekN-6Q-73">
          <mxGeometry relative="1" as="geometry" />
        </mxCell>
        <mxCell id="OIwTNz8X2AKilvekN-6Q-71" value="czy szukający skończył już liczyć?" style="rounded=1;whiteSpace=wrap;html=1;absoluteArcSize=1;arcSize=14;strokeWidth=2;" vertex="1" parent="WIyWlLk6GJQsqaUBKTNV-1">
          <mxGeometry x="-260" y="730" width="110" height="100" as="geometry" />
        </mxCell>
        <mxCell id="OIwTNz8X2AKilvekN-6Q-78" style="edgeStyle=orthogonalEdgeStyle;rounded=0;orthogonalLoop=1;jettySize=auto;html=1;entryX=0.5;entryY=0;entryDx=0;entryDy=0;" edge="1" parent="WIyWlLk6GJQsqaUBKTNV-1" source="OIwTNz8X2AKilvekN-6Q-73" target="OIwTNz8X2AKilvekN-6Q-77">
          <mxGeometry relative="1" as="geometry" />
        </mxCell>
        <mxCell id="OIwTNz8X2AKilvekN-6Q-73" value="nie&lt;br&gt;" style="rounded=1;whiteSpace=wrap;html=1;absoluteArcSize=1;arcSize=14;strokeWidth=2;" vertex="1" parent="WIyWlLk6GJQsqaUBKTNV-1">
          <mxGeometry x="-320" y="850" width="50" height="30" as="geometry" />
        </mxCell>
        <mxCell id="OIwTNz8X2AKilvekN-6Q-89" style="edgeStyle=orthogonalEdgeStyle;rounded=0;orthogonalLoop=1;jettySize=auto;html=1;entryX=0.5;entryY=1;entryDx=0;entryDy=0;exitX=0.5;exitY=1;exitDx=0;exitDy=0;" edge="1" parent="WIyWlLk6GJQsqaUBKTNV-1" source="OIwTNz8X2AKilvekN-6Q-74" target="OIwTNz8X2AKilvekN-6Q-84">
          <mxGeometry relative="1" as="geometry">
            <Array as="points">
              <mxPoint x="-115" y="1290" />
              <mxPoint x="-375" y="1290" />
            </Array>
          </mxGeometry>
        </mxCell>
        <mxCell id="OIwTNz8X2AKilvekN-6Q-74" value="tak" style="rounded=1;whiteSpace=wrap;html=1;absoluteArcSize=1;arcSize=14;strokeWidth=2;" vertex="1" parent="WIyWlLk6GJQsqaUBKTNV-1">
          <mxGeometry x="-140" y="850" width="50" height="30" as="geometry" />
        </mxCell>
        <mxCell id="OIwTNz8X2AKilvekN-6Q-81" style="edgeStyle=orthogonalEdgeStyle;rounded=0;orthogonalLoop=1;jettySize=auto;html=1;entryX=0.5;entryY=0;entryDx=0;entryDy=0;" edge="1" parent="WIyWlLk6GJQsqaUBKTNV-1" source="OIwTNz8X2AKilvekN-6Q-77" target="OIwTNz8X2AKilvekN-6Q-80">
          <mxGeometry relative="1" as="geometry" />
        </mxCell>
        <mxCell id="OIwTNz8X2AKilvekN-6Q-82" style="edgeStyle=orthogonalEdgeStyle;rounded=0;orthogonalLoop=1;jettySize=auto;html=1;entryX=0.5;entryY=0;entryDx=0;entryDy=0;" edge="1" parent="WIyWlLk6GJQsqaUBKTNV-1" source="OIwTNz8X2AKilvekN-6Q-77" target="OIwTNz8X2AKilvekN-6Q-79">
          <mxGeometry relative="1" as="geometry" />
        </mxCell>
        <mxCell id="OIwTNz8X2AKilvekN-6Q-77" value="chcesz się przemieścić?" style="rounded=1;whiteSpace=wrap;html=1;absoluteArcSize=1;arcSize=14;strokeWidth=2;" vertex="1" parent="WIyWlLk6GJQsqaUBKTNV-1">
          <mxGeometry x="-345" y="920" width="100" height="50" as="geometry" />
        </mxCell>
        <mxCell id="OIwTNz8X2AKilvekN-6Q-83" style="edgeStyle=orthogonalEdgeStyle;rounded=0;orthogonalLoop=1;jettySize=auto;html=1;entryX=0.5;entryY=0;entryDx=0;entryDy=0;" edge="1" parent="WIyWlLk6GJQsqaUBKTNV-1" source="OIwTNz8X2AKilvekN-6Q-79" target="OIwTNz8X2AKilvekN-6Q-70">
          <mxGeometry relative="1" as="geometry" />
        </mxCell>
        <mxCell id="OIwTNz8X2AKilvekN-6Q-79" value="tak" style="rounded=1;whiteSpace=wrap;html=1;absoluteArcSize=1;arcSize=14;strokeWidth=2;" vertex="1" parent="WIyWlLk6GJQsqaUBKTNV-1">
          <mxGeometry x="-220" y="1010" width="50" height="30" as="geometry" />
        </mxCell>
        <mxCell id="OIwTNz8X2AKilvekN-6Q-85" style="edgeStyle=orthogonalEdgeStyle;rounded=0;orthogonalLoop=1;jettySize=auto;html=1;entryX=0.5;entryY=0;entryDx=0;entryDy=0;" edge="1" parent="WIyWlLk6GJQsqaUBKTNV-1" source="OIwTNz8X2AKilvekN-6Q-80" target="OIwTNz8X2AKilvekN-6Q-84">
          <mxGeometry relative="1" as="geometry" />
        </mxCell>
        <mxCell id="OIwTNz8X2AKilvekN-6Q-80" value="nie&lt;br&gt;" style="rounded=1;whiteSpace=wrap;html=1;absoluteArcSize=1;arcSize=14;strokeWidth=2;" vertex="1" parent="WIyWlLk6GJQsqaUBKTNV-1">
          <mxGeometry x="-400" y="1010" width="50" height="30" as="geometry" />
        </mxCell>
        <mxCell id="OIwTNz8X2AKilvekN-6Q-87" style="edgeStyle=orthogonalEdgeStyle;rounded=0;orthogonalLoop=1;jettySize=auto;html=1;" edge="1" parent="WIyWlLk6GJQsqaUBKTNV-1" source="OIwTNz8X2AKilvekN-6Q-84" target="OIwTNz8X2AKilvekN-6Q-63">
          <mxGeometry relative="1" as="geometry" />
        </mxCell>
        <mxCell id="OIwTNz8X2AKilvekN-6Q-91" style="edgeStyle=orthogonalEdgeStyle;rounded=0;orthogonalLoop=1;jettySize=auto;html=1;entryX=0.5;entryY=0;entryDx=0;entryDy=0;" edge="1" parent="WIyWlLk6GJQsqaUBKTNV-1" source="OIwTNz8X2AKilvekN-6Q-84" target="OIwTNz8X2AKilvekN-6Q-90">
          <mxGeometry relative="1" as="geometry" />
        </mxCell>
        <mxCell id="OIwTNz8X2AKilvekN-6Q-84" value="zostań na miejscu" style="rounded=1;whiteSpace=wrap;html=1;absoluteArcSize=1;arcSize=14;strokeWidth=2;" vertex="1" parent="WIyWlLk6GJQsqaUBKTNV-1">
          <mxGeometry x="-425" y="1230" width="100" height="40" as="geometry" />
        </mxCell>
        <mxCell id="OIwTNz8X2AKilvekN-6Q-94" style="edgeStyle=orthogonalEdgeStyle;rounded=0;orthogonalLoop=1;jettySize=auto;html=1;entryX=0.5;entryY=0;entryDx=0;entryDy=0;" edge="1" parent="WIyWlLk6GJQsqaUBKTNV-1" source="OIwTNz8X2AKilvekN-6Q-90" target="OIwTNz8X2AKilvekN-6Q-93">
          <mxGeometry relative="1" as="geometry" />
        </mxCell>
        <mxCell id="OIwTNz8X2AKilvekN-6Q-95" style="edgeStyle=orthogonalEdgeStyle;rounded=0;orthogonalLoop=1;jettySize=auto;html=1;entryX=0.5;entryY=0;entryDx=0;entryDy=0;" edge="1" parent="WIyWlLk6GJQsqaUBKTNV-1" source="OIwTNz8X2AKilvekN-6Q-90" target="OIwTNz8X2AKilvekN-6Q-92">
          <mxGeometry relative="1" as="geometry" />
        </mxCell>
        <mxCell id="OIwTNz8X2AKilvekN-6Q-90" value="czy szukający cię już znalazł?" style="rounded=1;whiteSpace=wrap;html=1;absoluteArcSize=1;arcSize=14;strokeWidth=2;" vertex="1" parent="WIyWlLk6GJQsqaUBKTNV-1">
          <mxGeometry x="-580" y="1520" width="100" height="60" as="geometry" />
        </mxCell>
        <mxCell id="OIwTNz8X2AKilvekN-6Q-114" style="edgeStyle=orthogonalEdgeStyle;rounded=0;orthogonalLoop=1;jettySize=auto;html=1;entryX=0.5;entryY=0;entryDx=0;entryDy=0;" edge="1" parent="WIyWlLk6GJQsqaUBKTNV-1" source="OIwTNz8X2AKilvekN-6Q-92" target="OIwTNz8X2AKilvekN-6Q-113">
          <mxGeometry relative="1" as="geometry" />
        </mxCell>
        <mxCell id="OIwTNz8X2AKilvekN-6Q-92" value="nie&lt;br&gt;" style="rounded=1;whiteSpace=wrap;html=1;absoluteArcSize=1;arcSize=14;strokeWidth=2;" vertex="1" parent="WIyWlLk6GJQsqaUBKTNV-1">
          <mxGeometry x="-660" y="1600" width="50" height="30" as="geometry" />
        </mxCell>
        <mxCell id="OIwTNz8X2AKilvekN-6Q-97" style="edgeStyle=orthogonalEdgeStyle;rounded=0;orthogonalLoop=1;jettySize=auto;html=1;entryX=0;entryY=0.5;entryDx=0;entryDy=0;" edge="1" parent="WIyWlLk6GJQsqaUBKTNV-1" source="OIwTNz8X2AKilvekN-6Q-93" target="OIwTNz8X2AKilvekN-6Q-96">
          <mxGeometry relative="1" as="geometry" />
        </mxCell>
        <mxCell id="OIwTNz8X2AKilvekN-6Q-93" value="tak" style="rounded=1;whiteSpace=wrap;html=1;absoluteArcSize=1;arcSize=14;strokeWidth=2;" vertex="1" parent="WIyWlLk6GJQsqaUBKTNV-1">
          <mxGeometry x="-450" y="1600" width="50" height="30" as="geometry" />
        </mxCell>
        <mxCell id="OIwTNz8X2AKilvekN-6Q-100" style="edgeStyle=orthogonalEdgeStyle;rounded=0;orthogonalLoop=1;jettySize=auto;html=1;entryX=0.5;entryY=0;entryDx=0;entryDy=0;" edge="1" parent="WIyWlLk6GJQsqaUBKTNV-1" source="OIwTNz8X2AKilvekN-6Q-96" target="OIwTNz8X2AKilvekN-6Q-99">
          <mxGeometry relative="1" as="geometry" />
        </mxCell>
        <mxCell id="OIwTNz8X2AKilvekN-6Q-101" style="edgeStyle=orthogonalEdgeStyle;rounded=0;orthogonalLoop=1;jettySize=auto;html=1;entryX=0.5;entryY=0;entryDx=0;entryDy=0;" edge="1" parent="WIyWlLk6GJQsqaUBKTNV-1" source="OIwTNz8X2AKilvekN-6Q-96" target="OIwTNz8X2AKilvekN-6Q-98">
          <mxGeometry relative="1" as="geometry" />
        </mxCell>
        <mxCell id="OIwTNz8X2AKilvekN-6Q-96" value="znalazł cię pierwszego?" style="rounded=1;whiteSpace=wrap;html=1;absoluteArcSize=1;arcSize=14;strokeWidth=2;" vertex="1" parent="WIyWlLk6GJQsqaUBKTNV-1">
          <mxGeometry x="-260" y="1590" width="100" height="50" as="geometry" />
        </mxCell>
        <mxCell id="OIwTNz8X2AKilvekN-6Q-103" style="edgeStyle=orthogonalEdgeStyle;rounded=0;orthogonalLoop=1;jettySize=auto;html=1;entryX=0;entryY=0.5;entryDx=0;entryDy=0;" edge="1" parent="WIyWlLk6GJQsqaUBKTNV-1" source="OIwTNz8X2AKilvekN-6Q-98" target="OIwTNz8X2AKilvekN-6Q-102">
          <mxGeometry relative="1" as="geometry" />
        </mxCell>
        <mxCell id="OIwTNz8X2AKilvekN-6Q-98" value="tak" style="rounded=1;whiteSpace=wrap;html=1;absoluteArcSize=1;arcSize=14;strokeWidth=2;" vertex="1" parent="WIyWlLk6GJQsqaUBKTNV-1">
          <mxGeometry x="-130" y="1650" width="50" height="30" as="geometry" />
        </mxCell>
        <mxCell id="OIwTNz8X2AKilvekN-6Q-106" style="edgeStyle=orthogonalEdgeStyle;rounded=0;orthogonalLoop=1;jettySize=auto;html=1;exitX=0.5;exitY=1;exitDx=0;exitDy=0;entryX=0.5;entryY=0;entryDx=0;entryDy=0;" edge="1" parent="WIyWlLk6GJQsqaUBKTNV-1" source="OIwTNz8X2AKilvekN-6Q-99" target="OIwTNz8X2AKilvekN-6Q-104">
          <mxGeometry relative="1" as="geometry" />
        </mxCell>
        <mxCell id="OIwTNz8X2AKilvekN-6Q-99" value="nie&lt;br&gt;" style="rounded=1;whiteSpace=wrap;html=1;absoluteArcSize=1;arcSize=14;strokeWidth=2;" vertex="1" parent="WIyWlLk6GJQsqaUBKTNV-1">
          <mxGeometry x="-235" y="1724" width="50" height="30" as="geometry" />
        </mxCell>
        <mxCell id="OIwTNz8X2AKilvekN-6Q-110" style="edgeStyle=orthogonalEdgeStyle;rounded=0;orthogonalLoop=1;jettySize=auto;html=1;entryX=0.5;entryY=0;entryDx=0;entryDy=0;" edge="1" parent="WIyWlLk6GJQsqaUBKTNV-1" source="OIwTNz8X2AKilvekN-6Q-102" target="OIwTNz8X2AKilvekN-6Q-109">
          <mxGeometry relative="1" as="geometry" />
        </mxCell>
        <mxCell id="OIwTNz8X2AKilvekN-6Q-102" value="będziesz szukającym w kolejnej turze" style="rounded=1;whiteSpace=wrap;html=1;absoluteArcSize=1;arcSize=14;strokeWidth=2;" vertex="1" parent="WIyWlLk6GJQsqaUBKTNV-1">
          <mxGeometry x="70" y="1635" width="100" height="60" as="geometry" />
        </mxCell>
        <mxCell id="OIwTNz8X2AKilvekN-6Q-111" style="edgeStyle=orthogonalEdgeStyle;rounded=0;orthogonalLoop=1;jettySize=auto;html=1;entryX=0;entryY=0.5;entryDx=0;entryDy=0;" edge="1" parent="WIyWlLk6GJQsqaUBKTNV-1" source="OIwTNz8X2AKilvekN-6Q-104" target="OIwTNz8X2AKilvekN-6Q-109">
          <mxGeometry relative="1" as="geometry" />
        </mxCell>
        <mxCell id="OIwTNz8X2AKilvekN-6Q-104" value="Nie będziesz szukającym w kolejnej turze" style="rounded=1;whiteSpace=wrap;html=1;absoluteArcSize=1;arcSize=14;strokeWidth=2;" vertex="1" parent="WIyWlLk6GJQsqaUBKTNV-1">
          <mxGeometry x="-267.5" y="1870" width="115" height="70" as="geometry" />
        </mxCell>
        <mxCell id="OIwTNz8X2AKilvekN-6Q-105" style="edgeStyle=orthogonalEdgeStyle;rounded=0;orthogonalLoop=1;jettySize=auto;html=1;exitX=0.5;exitY=1;exitDx=0;exitDy=0;" edge="1" parent="WIyWlLk6GJQsqaUBKTNV-1" source="OIwTNz8X2AKilvekN-6Q-104" target="OIwTNz8X2AKilvekN-6Q-104">
          <mxGeometry relative="1" as="geometry" />
        </mxCell>
        <mxCell id="OIwTNz8X2AKilvekN-6Q-108" style="edgeStyle=orthogonalEdgeStyle;rounded=0;orthogonalLoop=1;jettySize=auto;html=1;" edge="1" parent="WIyWlLk6GJQsqaUBKTNV-1" source="OIwTNz8X2AKilvekN-6Q-107" target="OIwTNz8X2AKilvekN-6Q-2">
          <mxGeometry relative="1" as="geometry" />
        </mxCell>
        <mxCell id="OIwTNz8X2AKilvekN-6Q-107" value="Start" style="strokeWidth=2;html=1;shape=mxgraph.flowchart.start_1;whiteSpace=wrap;" vertex="1" parent="WIyWlLk6GJQsqaUBKTNV-1">
          <mxGeometry x="300" width="100" height="50" as="geometry" />
        </mxCell>
        <mxCell id="OIwTNz8X2AKilvekN-6Q-109" value="wróć na start" style="rounded=1;whiteSpace=wrap;html=1;absoluteArcSize=1;arcSize=14;strokeWidth=2;" vertex="1" parent="WIyWlLk6GJQsqaUBKTNV-1">
          <mxGeometry x="220" y="1855" width="100" height="100" as="geometry" />
        </mxCell>
        <mxCell id="OIwTNz8X2AKilvekN-6Q-115" style="edgeStyle=orthogonalEdgeStyle;rounded=0;orthogonalLoop=1;jettySize=auto;html=1;entryX=0.5;entryY=1;entryDx=0;entryDy=0;" edge="1" parent="WIyWlLk6GJQsqaUBKTNV-1" source="OIwTNz8X2AKilvekN-6Q-113" target="OIwTNz8X2AKilvekN-6Q-90">
          <mxGeometry relative="1" as="geometry" />
        </mxCell>
        <mxCell id="OIwTNz8X2AKilvekN-6Q-113" value="czekaj dalej" style="rounded=1;whiteSpace=wrap;html=1;absoluteArcSize=1;arcSize=14;strokeWidth=2;" vertex="1" parent="WIyWlLk6GJQsqaUBKTNV-1">
          <mxGeometry x="-685" y="1714" width="100" height="40" as="geometry" />
        </mxCell>
      </root>
    </mxGraphModel>
  </diagram>
</mxfile>
